HIERARCHY
ROOT Hips
{
 OFFSET 0.000000 0.000000 0.000000
 CHANNELS 6 Xposition Yposition Zposition Yrotation Xrotation Zrotation
 JOINT Chest
 {
  OFFSET 0.000000 9.585900 0.002600
  CHANNELS 3 Yrotation Xrotation Zrotation
  JOINT Chest2
  {
   OFFSET 0.000000 9.601200 -0.005300
   CHANNELS 3 Yrotation Xrotation Zrotation
   JOINT Chest3
   {
    OFFSET 0.000000 9.561800 0.000000
    CHANNELS 3 Yrotation Xrotation Zrotation
    JOINT Chest4
    {
     OFFSET 0.000000 9.552100 0.000000
     CHANNELS 3 Yrotation Xrotation Zrotation
     JOINT Neck
     {
      OFFSET 0.000000 14.453000 0.000000
      CHANNELS 3 Yrotation Xrotation Zrotation
      JOINT Head
      {
       OFFSET 0.000000 8.936500 -0.011300
       CHANNELS 3 Yrotation Xrotation Zrotation
       End Site
       {
        OFFSET 0.000000 17.073600 -0.006000
       }
      }
     }
     JOINT RightCollar
     {
      OFFSET -2.921100 9.558500 0.000000
      CHANNELS 3 Yrotation Xrotation Zrotation
      JOINT RightShoulder
      {
       OFFSET -13.519700 0.000000 0.000000
       CHANNELS 3 Yrotation Xrotation Zrotation
       JOINT RightElbow
       {
        OFFSET 0.000000 -29.696600 0.000000
        CHANNELS 3 Yrotation Xrotation Zrotation
        JOINT RightWrist
        {
         OFFSET 0.000000 -24.004700 0.000000
         CHANNELS 3 Yrotation Xrotation Zrotation
         End Site
         {
          OFFSET 0.000000 -17.728500 0.000000
         }
        }
       }
      }
     }
     JOINT LeftCollar
     {
      OFFSET 2.921100 9.558500 0.000000
      CHANNELS 3 Yrotation Xrotation Zrotation
      JOINT LeftShoulder
      {
       OFFSET 13.519700 0.000000 0.000000
       CHANNELS 3 Yrotation Xrotation Zrotation
       JOINT LeftElbow
       {
        OFFSET 0.000000 -29.696600 0.000000
        CHANNELS 3 Yrotation Xrotation Zrotation
        JOINT LeftWrist
        {
         OFFSET 0.000000 -24.004700 0.000000
         CHANNELS 3 Yrotation Xrotation Zrotation
         End Site
         {
          OFFSET 0.000000 -17.728500 0.000000
         }
        }
       }
      }
     }
    }
   }
  }
 }
 JOINT RightHip
 {
  OFFSET -7.771700 -0.012900 -0.001300
  CHANNELS 3 Yrotation Xrotation Zrotation
  JOINT RightKnee
  {
   OFFSET 0.000000 -40.869800 0.001200
   CHANNELS 3 Yrotation Xrotation Zrotation
   JOINT RightAnkle
   {
    OFFSET 0.000000 -39.717900 0.002100
    CHANNELS 3 Yrotation Xrotation Zrotation
    JOINT RightToe
    {
     OFFSET 0.000000 -4.965400 11.033500
     CHANNELS 3 Yrotation Xrotation Zrotation
     End Site
     {
      OFFSET 0.000000 -1.423100 5.872300
     }
    }
   }
  }
 }
 JOINT LeftHip
 {
  OFFSET 7.771700 -0.012900 -0.001300
  CHANNELS 3 Yrotation Xrotation Zrotation
  JOINT LeftKnee
  {
   OFFSET 0.000000 -40.869800 0.001200
   CHANNELS 3 Yrotation Xrotation Zrotation
   JOINT LeftAnkle
   {
    OFFSET 0.000000 -39.717900 0.002100
    CHANNELS 3 Yrotation Xrotation Zrotation
    JOINT LeftToe
    {
     OFFSET 0.000000 -4.965400 11.033500
     CHANNELS 3 Yrotation Xrotation Zrotation
     End Site
     {
      OFFSET 0.000000 -1.423100 5.872300
     }
    }
   }
  }
 }
}
MOTION
Frames: 9
Frame Time: 0.008333
-24.569230 58.031537 13.598773 177.482742 -52.525246 -3.318985 3.369047 20.309401 3.709801 1.736906 11.648910 1.905181 2.245334 14.518202 2.488968 1.733909 11.677934 1.886715 -0.797933 18.674077 1.507981 -1.943157 -1.080824 3.019113 3.501219 -0.341266 1.623994 10.440066 -27.449814 -13.542021 39.103272 -43.225173 -7.939150 26.321513 13.165260 9.180513 -10.624162 -3.002116 1.356459 -12.923915 -41.859042 27.246679 6.527858 -50.829174 -17.230475 -7.551353 2.098247 -2.112632 1.755085 -19.117082 -3.208525 -30.742230 73.004020 -34.586122 6.436618 -12.620337 10.921065 0.041145 0.125480 0.016615 -4.672860 -16.593088 6.726831 86.276428 83.920076 85.370050 0.165574 -22.097150 -16.432696 -0.053536 -0.013730 -0.046213
-24.563977 58.032723 13.598082 177.471134 -52.550445 -3.317472 3.382756 20.335062 3.713005 1.738115 11.662378 1.890529 2.252574 14.532842 2.484475 1.738446 11.677005 1.890198 -0.772365 18.652033 1.533592 -1.855513 -1.117410 3.062324 3.501149 -0.336901 1.628138 10.458974 -27.462037 -13.555328 39.093377 -43.250912 -7.953865 26.316407 13.162976 9.183687 -10.632065 -2.898186 1.321608 -12.952498 -41.606516 27.021914 5.176292 -51.086883 -16.228104 -8.125144 2.288364 -2.417921 1.758839 -19.090402 -3.186996 -30.771282 73.002597 -34.622041 6.442722 -12.670121 10.914723 0.034291 0.135555 0.023335 -4.675057 -16.566104 6.730814 86.275790 83.919525 85.370178 0.172319 -22.096622 -16.439848 -0.053359 -0.015961 -0.044734
-24.559793 58.032308 13.597899 177.473357 -52.562185 -3.326178 3.386498 20.356393 3.686726 1.747263 11.666399 1.905407 2.256731 14.545606 2.477901 1.744344 11.657249 1.910127 -0.752837 18.649839 1.542263 -1.766853 -1.150588 3.104544 3.501283 -0.328034 1.626951 10.465930 -27.469933 -13.560987 39.098643 -43.264108 -7.968896 26.319357 13.150399 9.181183 -10.638668 -2.789876 1.266783 -12.969104 -41.334762 26.761734 3.753714 -51.357732 -15.127960 -8.734728 2.490290 -2.764125 1.754376 -19.077574 -3.167194 -30.816362 72.995622 -34.668409 6.448503 -12.694612 10.909540 0.034961 0.126896 0.025399 -4.692786 -16.553029 6.731667 86.260342 83.920977 85.354165 0.186792 -22.095795 -16.451400 -0.056140 -0.014978 -0.042778
-24.557208 58.032044 13.596898 177.480849 -52.573672 -3.335253 3.389991 20.374437 3.678625 1.750440 11.674500 1.901701 2.261201 14.576577 2.452392 1.746823 11.646625 1.923564 -0.705205 18.627940 1.575497 -1.743980 -1.178481 3.133399 3.506628 -0.347304 1.648261 10.472051 -27.479603 -13.566856 39.115247 -43.281478 -7.992218 26.312786 13.148570 9.181954 -10.638422 -2.712959 1.242880 -12.974020 -41.047007 26.464257 2.266499 -51.636145 -13.940253 -9.385735 2.697847 -3.151684 1.746858 -19.064919 -3.151611 -30.863433 72.991737 -34.718099 6.448972 -12.712001 10.907151 0.032901 0.110646 0.024342 -4.709388 -16.538657 6.729461 86.219050 83.914546 85.313218 0.185120 -22.095451 -16.457380 -0.054256 -0.013494 -0.042095
-24.556266 58.031275 13.595654 177.489294 -52.579712 -3.341547 3.391667 20.387946 3.667100 1.752762 11.682374 1.898562 2.262800 14.566391 2.464446 1.750954 11.674530 1.901375 -0.661201 18.608216 1.608942 -1.647604 -1.213295 3.187397 3.495621 -0.346651 1.665260 10.490778 -27.497409 -13.580988 39.116599 -43.306355 -8.013300 26.313895 13.138831 9.204439 -10.640627 -2.631121 1.223314 -12.968201 -40.753494 26.132848 0.720119 -51.919894 -12.681026 -10.066643 2.911045 -3.580630 1.742838 -19.056055 -3.139510 -30.920993 72.991703 -34.779624 6.434210 -12.747467 10.905847 0.045350 0.110166 0.028544 -4.724944 -16.534157 6.721736 86.253190 83.910329 85.352120 0.191697 -22.094465 -16.470077 -0.047802 -0.017742 -0.034538
-24.556920 58.030133 13.594130 177.503696 -52.580769 -3.349590 3.386817 20.397953 3.652545 1.753778 11.690125 1.895213 2.268485 14.575007 2.460121 1.749879 11.700709 1.886449 -0.608982 18.572464 1.651758 -1.548956 -1.240696 3.236145 3.491402 -0.335477 1.693963 10.513388 -27.543570 -13.605150 39.111393 -43.334703 -8.026668 26.313010 13.138606 9.222686 -10.627248 -2.556676 1.221047 -12.951197 -40.460861 25.768680 -0.876141 -52.208924 -11.366518 -10.761901 3.136708 -4.052886 1.734821 -19.053357 -3.139979 -30.932101 72.996981 -34.796098 6.440639 -12.780919 10.901106 0.039923 0.114937 0.032835 -4.738329 -16.539086 6.707448 86.327509 83.900428 85.429230 0.199704 -22.092754 -16.472172 -0.049258 -0.020619 -0.036901
-24.557121 58.029620 13.591881 177.519247 -52.583389 -3.367839 3.381876 20.405507 3.653696 1.752693 11.703091 1.885144 2.266155 14.610654 2.435091 1.764135 11.664269 1.911971 -0.569310 18.576643 1.668462 -1.473866 -1.263949 3.274479 3.490917 -0.330055 1.706605 10.487366 -27.536537 -13.624050 39.132618 -43.396762 -8.040571 26.313645 13.148966 9.246796 -10.608775 -2.440915 1.195722 -12.929550 -40.171303 25.369319 -2.516285 -52.493361 -9.999111 -11.458727 3.380538 -4.560369 1.723174 -19.049619 -3.131945 -30.936180 73.001938 -34.804978 6.461078 -12.804112 10.896085 0.017559 0.121426 0.035634 -4.745032 -16.538767 6.707279 86.364242 83.896467 85.472645 0.205390 -22.096559 -16.472812 -0.051180 -0.018258 -0.038044
-24.557780 58.028606 13.589712 177.527186 -52.579428 -3.384004 3.382527 20.407180 3.659049 1.748991 11.714715 1.873428 2.270086 14.605351 2.441675 1.762443 11.683844 1.900955 -0.504804 18.581348 1.700180 -1.415073 -1.296933 3.307324 3.497929 -0.355308 1.723598 10.460613 -27.529790 -13.624117 39.151690 -43.424127 -8.048467 26.305404 13.156716 9.256990 -10.583178 -2.323939 1.184849 -12.913117 -39.890223 24.938268 -4.183802 -52.756430 -8.598458 -12.138155 3.650854 -5.085665 1.715779 -19.049502 -3.119614 -30.938699 72.999727 -34.808560 6.476749 -12.827330 10.889742 0.021409 0.117319 0.037810 -4.743572 -16.543913 6.711530 86.375285 83.888629 85.494968 0.202045 -22.102961 -16.473264 -0.049767 -0.013585 -0.037944
-24.559654 58.028325 13.586655 177.533303 -52.577971 -3.397551 3.380589 20.418969 3.651811 1.752416 11.709335 1.880305 2.268175 14.609508 2.439388 1.753126 11.701784 1.888745 -0.474260 18.556723 1.720554 -1.317181 -1.293870 3.334462 3.509092 -0.346527 1.741292 10.457295 -27.561299 -13.631581 39.118448 -43.452451 -8.038184 26.326824 13.168950 9.281834 -10.544694 -2.191703 1.175978 -12.892180 -39.625815 24.484672 -5.832516 -52.987672 -7.231314 -12.787070 3.949255 -5.617446 1.710383 -19.046576 -3.107557 -30.952053 73.000427 -34.822050 6.470451 -12.849309 10.887366 0.043524 0.099671 0.036950 -4.740023 -16.545529 6.716297 86.424198 83.886538 85.551167 0.199988 -22.113494 -16.469350 -0.049832 -0.011801 -0.036221
